<svg width="32" height="32" viewBox="0 0 32 32" fill="none" xmlns="http://www.w3.org/2000/svg">
  <path d="M16 0C7.164 0 0 7.164 0 16s7.164 16 16 16 16-7.164 16-16S24.836 0 16 0zm5.338 21.338c-.484.484-1.122.726-1.76.726-.638 0-1.276-.242-1.76-.726l-3.818-3.818-3.818 3.818c-.484.484-1.122.726-1.76.726-.638 0-1.276-.242-1.76-.726-.97-.97-.97-2.55 0-3.52l3.818-3.818-3.818-3.818c-.97-.97-.97-2.55 0-3.52.97-.97 2.55-.97 3.52 0l3.818 3.818 3.818-3.818c.97-.97 2.55-.97 3.52 0 .97.97.97 2.55 0 3.52l-3.818 3.818 3.818 3.818c.97.97.97 2.55 0 3.52z" fill="url(#paint0_linear)"/>
  <defs>
    <linearGradient id="paint0_linear" x1="0" y1="16" x2="32" y2="16" gradientUnits="userSpaceOnUse">
      <stop stop-color="#FF4B4B"/>
      <stop offset="1" stop-color="#FF2D2D"/>
    </linearGradient>
  </defs>
</svg> 